/* XPM */
static char * hide_prelight_xpm[] = {
"16 16 3 1",
" 	c None",
".	c #222222",
"+	c #1abc9c",
"................",
"................",
"................",
"................",
"................",
"................",
"................",
"....++++++++....",
"....++++++++....",
"................",
"................",
"................",
"................",
"................",
"................",
"................"};
