/* XPM */
static char * top_left_inactive_xpm[] = {
"2 25 3 1",
" 	c None",
".	c #393939",
"+	c #222222",
" .",
".+",
".+",
".+",
".+",
".+",
".+",
".+",
".+",
".+",
".+",
".+",
".+",
".+",
".+",
".+",
".+",
".+",
".+",
".+",
".+",
".+",
".+",
".+",
".+"};
